<svg width="302" height="230" xmlns="http://www.w3.org/2000/svg">
  <path d="M.89 229.76v-17.1h3.96c3.12-7.26 4.62-14.4 4.62-28.74V179h30.54v33.66h5.04l-1.2 17.1h-7.74V221H9.83l-.6 8.76H.89zm29.88-42.42H18.35v4.26c0 8.88-1.38 15.24-3.78 21.06h16.2v-25.32zM51.93 221h31.98v-8.22h-22.8v-8.82h19.8v-8.22h-19.8v-8.52h22.5V179H51.93v42zm40.6 0h9.24v-12.84l4.86-5.04L119.65 221h11.1l-17.88-24.18 17.1-17.82h-11.16l-17.04 18.36V179h-9.24v42zm40.6 0l18-42.3h8.52l18 42.3h-9.66l-3.84-9.42h-17.76l-3.84 9.42h-9.42zm16.56-17.58h11.16l-5.58-13.62-5.58 13.62zm44.08-16.08v7.32h11.1c9.48 0 14.76 5.16 14.76 13.02 0 8.58-5.94 13.32-15.66 13.32h-19.44v-42h32.22v8.34h-22.98zm10.14 15h-10.14v10.32h10.2c4.32 0 6.42-1.68 6.42-5.34 0-3.24-2.1-4.98-6.48-4.98zM227.65 221v-42h17.16c10.02 0 16.08 5.94 16.08 14.64 0 9.72-7.56 14.76-16.98 14.76h-7.02V221h-9.24zm9.24-20.82h7.32c4.62 0 7.32-2.76 7.32-6.48 0-4.14-2.88-6.36-7.5-6.36h-7.14v12.84zM268.13 221v-42h9.24v14.28h8.94c9.72 0 15.36 5.4 15.36 13.62 0 8.64-6.12 14.1-15.96 14.1h-17.58zm17.4-19.8h-8.16v11.46h8.22c4.56 0 6.9-1.98 6.9-5.88 0-3.54-2.34-5.58-6.96-5.58zM2.45 66.82V46.38h43.12v20.44H2.45zM65.79 100V23.14l-17.08 4.2L44.23 9.7l28.14-8.4h14.7V100H65.79zm77.62 1.68c-26.18 0-43.4-21.98-43.4-50.68 0-28.42 17.64-50.68 43.68-50.68 25.9 0 43.4 21.98 43.4 50.68 0 28.42-17.5 50.68-43.68 50.68zm.28-19.46c13.02 0 21.28-13.16 21.28-31.22 0-17.78-8.68-31.22-21.56-31.22-12.88 0-21.28 13.02-21.28 31.22 0 17.92 8.54 31.22 21.56 31.22zM217.11 51c-14.14 0-23.66-11.06-23.66-25.06 0-13.86 9.66-25.06 23.94-25.06 14.14 0 23.66 11.06 23.66 25.06 0 13.72-9.66 25.06-23.94 25.06zm-13.86 49l71.54-98h16.66l-71.54 98h-16.66zm74.06 1.12c-14.14 0-23.66-11.06-23.66-25.06 0-13.86 9.66-25.06 23.94-25.06 14.14 0 23.66 11.06 23.66 25.06 0 13.72-9.66 25.06-23.94 25.06zm-59.92-62.86c5.88 0 8.96-5.74 8.96-12.32s-3.64-12.32-9.24-12.32c-5.88 0-8.96 5.6-8.96 12.32 0 6.58 3.64 12.32 9.24 12.32zm60.2 50.12c5.88 0 8.96-5.74 8.96-12.32s-3.64-12.32-9.24-12.32c-5.88 0-8.96 5.6-8.96 12.32 0 6.58 3.64 12.32 9.24 12.32zM2.962 159H5.02v-19.572h13.692V159h2.058v-21.42H2.962V159zm34.712.504c-6.342 0-10.962-5.124-10.962-11.214 0-6.006 4.662-11.214 11.046-11.214 6.342 0 10.962 5.124 10.962 11.214 0 6.006-4.662 11.214-11.046 11.214zm.084-1.932c4.746 0 8.736-4.158 8.736-9.282 0-5.166-3.99-9.282-8.82-9.282s-8.736 4.158-8.736 9.282c0 5.166 3.864 9.282 8.82 9.282zM66.862 159h2.058v-19.572h13.692V159h2.058v-21.42H66.862V159zm25.22 6.72v-28.14h2.058v4.788c1.848-2.814 4.578-5.292 8.82-5.292 5.166 0 10.416 4.158 10.416 11.214 0 6.972-5.25 11.214-10.416 11.214-4.284 0-7.056-2.436-8.82-5.124v11.34h-2.058zm10.668-8.19c4.662 0 8.4-3.402 8.4-9.24 0-5.628-3.906-9.24-8.4-9.24-4.452 0-8.736 3.738-8.736 9.282 0 5.502 4.284 9.198 8.736 9.198zm26.144 1.974c-6.342 0-10.962-5.124-10.962-11.214 0-6.006 4.662-11.214 11.046-11.214 6.342 0 10.962 5.124 10.962 11.214 0 6.006-4.662 11.214-11.046 11.214zm.084-1.932c4.746 0 8.736-4.158 8.736-9.282 0-5.166-3.99-9.282-8.82-9.282s-8.736 4.158-8.736 9.282c0 5.166 3.864 9.282 8.82 9.282zM145.882 159h1.974v-17.85l8.526 11.844 8.61-11.844V159h2.058v-21.42h-1.848l-8.736 12.306-8.736-12.306h-1.848V159zm37.232.504c-6.342 0-10.962-5.124-10.962-11.214 0-6.006 4.662-11.214 11.046-11.214 6.342 0 10.962 5.124 10.962 11.214 0 6.006-4.662 11.214-11.046 11.214zm.084-1.932c4.746 0 8.736-4.158 8.736-9.282 0-5.166-3.99-9.282-8.82-9.282s-8.736 4.158-8.736 9.282c0 5.166 3.864 9.282 8.82 9.282zM200.102 159h2.058v-5.208l5.208-5.25L215.852 159h2.604l-9.66-11.928 9.366-9.492h-2.73l-13.272 13.734V137.58h-2.058V159zm31.604.504c-6.342 0-10.962-5.124-10.962-11.214 0-6.006 4.662-11.214 11.046-11.214 6.342 0 10.962 5.124 10.962 11.214 0 6.006-4.662 11.214-11.046 11.214zm.084-1.932c4.746 0 8.736-4.158 8.736-9.282 0-5.166-3.99-9.282-8.82-9.282s-8.736 4.158-8.736 9.282c0 5.166 3.864 9.282 8.82 9.282zm12.746 7.476v-7.896h2.814c1.89-3.108 3.15-7.896 3.15-15.036v-4.536h14.364v19.572h3.444l-.42 7.896h-1.68V159h-19.53l-.42 6.048h-1.722zm5.082-7.896h13.188v-17.724h-10.332v3.864c0 5.712-1.176 11.004-2.856 13.86zm26.06 8.694c3.066 0 5.25-1.596 7.14-6.09l9.282-22.176h-2.268l-7.728 19.152-8.904-19.152h-2.394l10.29 21.294c-1.596 3.738-3.066 5.04-5.292 5.04-1.596 0-2.52-.252-3.654-.798l-.714 1.806c1.428.63 2.604.924 4.242.924zm21.84-6.846h2.772v-3.57h-2.772V159zm0-17.85h2.772v-3.57h-2.772v3.57z" fill="#FFF" fill-rule="evenodd"/>
</svg>
