<svg width="304" height="221" xmlns="http://www.w3.org/2000/svg">
  <path d="M2.28 68.346V47.614h43.736v20.732H2.28zM65.552 102V24.042l-17.324 4.26-4.544-17.892 28.542-8.52h14.91V102H65.552zm77.756 1.704c-26.554 0-44.02-22.294-44.02-51.404 0-28.826 17.892-51.404 44.304-51.404 26.27 0 44.02 22.294 44.02 51.404 0 28.826-17.75 51.404-44.304 51.404zm.284-19.738c13.206 0 21.584-13.348 21.584-31.666 0-18.034-8.804-31.666-21.868-31.666-13.064 0-21.584 13.206-21.584 31.666 0 18.176 8.662 31.666 21.868 31.666zM217.088 52.3c-14.342 0-23.998-11.218-23.998-25.418 0-14.058 9.798-25.418 24.282-25.418 14.342 0 23.998 11.218 23.998 25.418 0 13.916-9.798 25.418-24.282 25.418zM203.03 102l72.562-99.4h16.898L219.928 102H203.03zm75.118 1.136c-14.342 0-23.998-11.218-23.998-25.418 0-14.058 9.798-25.418 24.282-25.418 14.342 0 23.998 11.218 23.998 25.418 0 13.916-9.798 25.418-24.282 25.418zm-60.776-63.758c5.964 0 9.088-5.822 9.088-12.496s-3.692-12.496-9.372-12.496c-5.964 0-9.088 5.68-9.088 12.496 0 6.674 3.692 12.496 9.372 12.496zm61.06 50.836c5.964 0 9.088-5.822 9.088-12.496s-3.692-12.496-9.372-12.496c-5.964 0-9.088 5.68-9.088 12.496 0 6.674 3.692 12.496 9.372 12.496zM32.016 186.388v21.142c7.006 0 11.656-4.092 11.656-10.602 0-6.386-4.65-10.54-11.656-10.54zm0 34.348h-9.548v-4.712c-13.392 0-21.514-8.308-21.514-19.282 0-10.85 8.184-18.848 21.514-18.848v-3.968h9.548v3.968c13.268 0 21.514 7.998 21.514 18.91 0 10.912-8.122 19.22-21.514 19.22v4.712zm-9.548-13.206v-21.142c-7.006 0-11.718 4.154-11.718 10.54 0 6.51 4.712 10.602 11.718 10.602zM59.342 219v-43.4h32.736v8.494h-23.25v8.804h20.46v8.494h-20.46v9.114h23.56V219H59.342zm39.54 0v-43.4h20.15c4.96 0 8.866 1.364 11.346 3.844 1.984 1.984 2.976 4.402 2.976 7.502 0 4.898-2.604 7.626-5.704 9.362 5.022 1.922 8.122 4.836 8.122 10.788 0 7.936-6.448 11.904-16.244 11.904H98.882zm9.3-25.854h8.804c4.216 0 6.882-1.364 6.882-4.712 0-2.852-2.232-4.464-6.262-4.464h-9.424v9.176zm0 17.484h11.346c4.216 0 6.758-1.488 6.758-4.836 0-2.914-2.17-4.712-7.068-4.712h-11.036v9.548zm33.464 8.37v-43.4h17.732c10.354 0 16.616 6.138 16.616 15.128 0 10.044-7.812 15.252-17.546 15.252h-7.254V219h-9.548zm9.548-21.514h7.564c4.774 0 7.564-2.852 7.564-6.696 0-4.278-2.976-6.572-7.75-6.572h-7.378v13.268zM173.002 219l18.6-43.71h8.804l18.6 43.71h-9.982l-3.968-9.734h-18.352L182.736 219h-9.734zm17.112-18.166h11.532l-5.766-14.074-5.766 14.074zm39.354-25.234h31V219h-9.548v-34.782h-12.524v3.286c0 25.544-4.154 32.054-14.074 32.054-1.55 0-3.844-.248-5.022-.558l.62-7.874c.434.062.868.124 1.488.124 5.146 0 8.06-3.286 8.06-26.66v-8.99zm39.416 43.4v-43.4h9.548v14.756h9.238c10.044 0 15.872 5.58 15.872 14.074 0 8.928-6.324 14.57-16.492 14.57h-18.166zm17.98-20.46h-8.432v11.842h8.494c4.712 0 7.13-2.046 7.13-6.076 0-3.658-2.418-5.766-7.192-5.766zM4.025 161v-21.714h18.816V161h-3.234v-18.858H7.259V161H4.025zm35.152.504c-6.51 0-11.256-5.124-11.256-11.34 0-6.132 4.788-11.34 11.34-11.34 6.51 0 11.298 5.124 11.298 11.34 0 6.132-4.83 11.34-11.382 11.34zm.084-2.898c4.704 0 7.98-3.78 7.98-8.442 0-4.662-3.486-8.484-8.064-8.484-4.704 0-7.938 3.822-7.938 8.484s3.444 8.442 8.022 8.442zM67.397 161v-21.714h18.816V161h-3.234v-18.858H70.631V161h-3.234zm25.24 6.72v-28.434h3.234v4.368c1.764-2.604 4.326-4.83 8.316-4.83 5.208 0 10.374 4.116 10.374 11.34 0 7.098-5.124 11.298-10.374 11.298-4.032 0-6.636-2.184-8.316-4.62v10.878h-3.234zm10.962-9.156c4.2 0 7.644-3.108 7.644-8.442 0-5.124-3.528-8.4-7.644-8.4-4.032 0-7.854 3.402-7.854 8.442s3.822 8.4 7.854 8.4zm26.038 2.94c-6.51 0-11.256-5.124-11.256-11.34 0-6.132 4.788-11.34 11.34-11.34 6.51 0 11.298 5.124 11.298 11.34 0 6.132-4.83 11.34-11.382 11.34zm.084-2.898c4.704 0 7.98-3.78 7.98-8.442 0-4.662-3.486-8.484-8.064-8.484-4.704 0-7.938 3.822-7.938 8.484s3.444 8.442 8.022 8.442zM146.057 161v-21.714h3.066l8.106 11.424 8.106-11.424h3.108V161h-3.276v-16.548l-8.022 11.004-7.938-11.004V161h-3.15zm37.882.504c-6.51 0-11.256-5.124-11.256-11.34 0-6.132 4.788-11.34 11.34-11.34 6.51 0 11.298 5.124 11.298 11.34 0 6.132-4.83 11.34-11.382 11.34zm.084-2.898c4.704 0 7.98-3.78 7.98-8.442 0-4.662-3.486-8.484-8.064-8.484-4.704 0-7.938 3.822-7.938 8.484s3.444 8.442 8.022 8.442zM200.359 161v-21.714h3.234v12.516l11.886-12.516h3.99l-9.072 9.408L219.721 161h-3.822l-7.728-9.954-4.578 4.704V161h-3.234zm31.666.504c-6.51 0-11.256-5.124-11.256-11.34 0-6.132 4.788-11.34 11.34-11.34 6.51 0 11.298 5.124 11.298 11.34 0 6.132-4.83 11.34-11.382 11.34zm.084-2.898c4.704 0 7.98-3.78 7.98-8.442 0-4.662-3.486-8.484-8.064-8.484-4.704 0-7.938 3.822-7.938 8.484s3.444 8.442 8.022 8.442zm12.724 7.812v-8.274h2.352c1.764-3.234 2.898-7.77 2.898-15.078v-3.78h15.456v18.858h3.276l-.504 8.274h-2.688V161h-17.556l-.588 5.418h-2.646zm5.796-8.274h11.676v-16.002h-9.114v3.024c0 5.376-1.05 10.164-2.562 12.978zm25.198 9.702c-1.806 0-3.15-.378-4.62-1.092l1.092-2.562c1.05.546 2.016.798 3.402.798 1.932 0 3.15-1.008 4.452-4.074l-9.87-21.63h3.57l7.896 18.102 6.972-18.102h3.444l-9.114 22.428c-1.848 4.494-3.948 6.132-7.224 6.132zm20.494-24.15v-4.41h3.864v4.41h-3.864zm0 17.304v-4.41h3.864V161h-3.864z" fill="#FFF" fill-rule="evenodd"/>
</svg>
