<svg xmlns="http://www.w3.org/2000/svg" viewBox="0 0 245.98 35.53">
  <defs>
    <style>
      .cls-1{fill:#fff;}.cls-2{fill:#ecaabb;}.cls-3{fill:#522100;}
    </style>
  </defs>
  <title>
    logo
  </title>
  <g id="Layer_2" data-name="Layer 2">
    <g id="Layer_1-2" data-name="Layer 1">
      <path class="cls-1" d="M0 6.36h22.27c7.41 0 15.57 1 15.57 7.93s-8.16 7.92-15.57 7.92H10.82v12.21h5v.43c-2.46 0-5.5-.08-7.92-.08s-5.47.08-7.93.08v-.43h5.1V6.8H0zm10.82.44v15h11.45c5.59 0 9-2.06 9-7.49s-3.37-7.49-9-7.49zm67.74 0v14.34c0 10.11-7.61 14.39-15.33 14.39s-18.15-1.87-18.15-14.39V6.8h-5.15v-.44c2.46 0 5.62.08 8.08.08s5.91-.08 8.32-.08v.44h-5.15v14.34c0 11.21 6.82 14 12 14 7.37 0 14.89-4 14.89-14V6.8h-5.5v-.44c1.9 0 3.84.08 5.78.08s3.81-.08 5.75-.08v.44zm9.99-.44c2.18 0 5.39.08 7.53.08s4.83-.08 7-.08H111c10 0 20 4.64 20 14.23s-10 14.26-20 14.26h-7.88c-2.06 0-5-.08-7.09-.08s-5.39.08-7.45.08v-.43h4.63V6.8h-4.66zm10.34.44v27.62H111c7.17 0 13.36-4.68 13.36-13.83S118.18 6.8 111 6.8zm46.79 27.62h5.07v.43c-2.49 0-5.54-.08-8-.08s-5.51.08-7.93.08v-.43h5.08V6.76h-5.08v-.44H157c7.45 0 15.89.72 15.89 7.61 0 4.87-4.16 6.82-9.11 7.37 3.09.48 6.46 1.94 7.65 5.9 1.07 3.61 1.74 7.41 5.38 7.41a4.75 4.75 0 0 0 4.72-4.71h.44c0 4.44-4.8 5.74-8.29 5.63-6.21-.24-7.48-2.86-8.71-7.3-1-3.56-2.5-6.61-7.17-6.61h-12.12zm0-27.66v14.42H157c5.63 0 9.27-1.78 9.27-7.25S162.6 6.76 157 6.76zm65.11-.32l17.31 28h5v.43c-1.9 0-6.26-.08-8.24-.08-2.57 0-5.43.08-8.48.08v-.43h5.27l-6-9.63h-21.71l-6 9.63h5.19v.43c-2.45 0-3.13-.08-5.58-.08s-2.86.08-5.27.08v-.43h5.15L204.6 6.8h-5.86v-.44l8.84.08h2.45a4.59 4.59 0 0 0 .76 0m-16.57 17.91h21.2l-10.58-17z"/>
      <path class="cls-2" d="M233.29 21.47c-12.69-7.2-12.71-14.18-12.67-14.89 0 0-.05 0-.05-.06A6.6 6.6 0 0 1 227.25 0c2.61 0 4.86 2.22 6 4.34 1.11-2.12 3.36-4.34 6-4.34A6.69 6.69 0 0 1 246 6.52s0 7.35-12.71 14.95z"/>
      <path class="cls-3" d="M227.83 8.89c0-.87 0-1.62-.06-2.31H229v1.47h.05a2.23 2.23 0 0 1 2.07-1.63 2.21 2.21 0 0 1 .37 0v1.31a2.17 2.17 0 0 0-.46 0 1.86 1.86 0 0 0-1.81 1.71 3.22 3.22 0 0 0 0 .63v4h-1.35zM239.06 12c0 .78 0 1.46.06 2h-1.2l-.08-1.21a2.75 2.75 0 0 1-2.45 1.38c-1.17 0-2.56-.66-2.56-3.25V6.58h1.35v4.09c0 1.41.44 2.38 1.66 2.38a1.93 1.93 0 0 0 1.77-1.24 1.81 1.81 0 0 0 .13-.69V6.58h1.35z"/>
    </g>
  </g>
</svg>
