<svg width="372" height="9" viewBox="0 0 372 9" xmlns="http://www.w3.org/2000/svg">
  <title>
    disclaimer
  </title>
  <path d="M3.9 7.108C1.992 7.108.74 5.588.74 3.85.74 2.13 2.01.592 3.92.592s3.16 1.52 3.16 3.258c0 1.72-1.27 3.258-3.178 3.258zm.018-.423c1.557 0 2.673-1.26 2.673-2.835 0-1.557-1.13-2.835-2.69-2.835S1.23 2.275 1.23 3.85c0 1.557 1.134 2.835 2.69 2.835zm7.532.423c-1.908 0-3.16-1.52-3.16-3.258 0-1.72 1.27-3.258 3.18-3.258s3.16 1.52 3.16 3.258c0 1.72-1.27 3.258-3.178 3.258zm.018-.423c1.557 0 2.673-1.26 2.673-2.835 0-1.557-1.13-2.835-2.69-2.835S8.78 2.275 8.78 3.85c0 1.557 1.134 2.835 2.69 2.835zM19 7.108c-1.908 0-3.16-1.52-3.16-3.258 0-1.72 1.27-3.258 3.178-3.258s3.16 1.52 3.16 3.258c0 1.72-1.27 3.258-3.178 3.258zm.018-.423c1.557 0 2.673-1.26 2.673-2.835 0-1.557-1.13-2.835-2.69-2.835s-2.67 1.26-2.67 2.835c0 1.557 1.14 2.835 2.69 2.835zm6.928-3.7h.26l.64-2.24V.7h-.585l-.31 2.286zm1.62 0h.26l.64-2.24V.7h-.585l-.31 2.286zM29.86 7h.468V1.132h3.942V7h.468V.7H29.86V7zm7.11 1.467c.656 0 1.124-.342 1.53-1.305l1.988-4.752h-.486l-1.656 4.104-1.908-4.104h-.513l2.205 4.563c-.342.8-.657 1.08-1.134 1.08-.342 0-.54-.054-.783-.17l-.153.386c.306.13.558.19.91.19zm3.742-.17V6.603h.603c.405-.666.675-1.692.675-3.222v-.97h3.078v4.2h.738l-.09 1.7h-.36V7H41.17l-.09 1.296h-.368zm1.09-1.693h2.825V2.806h-2.214v.828c0 1.224-.252 2.358-.612 2.97zm5.01 1.836V2.41h.442v1.026c.396-.603.98-1.134 1.89-1.134 1.107 0 2.232.89 2.232 2.403 0 1.494-1.125 2.403-2.232 2.403-.92 0-1.512-.522-1.89-1.098v2.43h-.44zM49.1 6.685c.997 0 1.798-.73 1.798-1.98 0-1.206-.837-1.98-1.8-1.98-.953 0-1.87.8-1.87 1.99-.002 1.178.916 1.97 1.87 1.97zm4.947.423c-.944 0-1.772-.486-1.772-1.458 0-.954.82-1.494 2.007-1.494.64 0 1.08.08 1.52.198v-.198c0-.927-.566-1.404-1.51-1.404-.56 0-1.02.153-1.442.37l-.162-.388c.505-.234 1-.396 1.63-.396.62 0 1.116.17 1.45.504.304.306.466.73.466 1.296V7h-.43l-.002-.765c-.315.44-.882.873-1.755.873zm.028-.414c.935 0 1.736-.576 1.736-1.413l.01-.52c-.38-.1-.9-.2-1.55-.2-.97 0-1.5.43-1.5 1.09 0 .67.53 1.05 1.33 1.05zm3.418-3.708h.26l.64-2.24V.7h-.584l-.32 2.286zm1.62 0h.26l.64-2.24V.7h-.584l-.32 2.286zm1.944 4.977c.54-.207.746-.504.746-1.062v-.66h-.593V7h.242v.08c0 .298-.143.478-.503.658l.1.225zM66.653 7h.46V.655h-.362l-1.44.53.13.37 1.22-.414V7zm2.914 0h.46V.655h-.36l-1.44.53.126.37 1.215-.414V7zm4.023.108c1.27 0 2.195-.837 2.195-2.025 0-1.143-.944-1.917-2.16-1.917-.585 0-.99.144-1.394.342l.16-2.358h3.13V.7h-3.54l-.18 3.05.36.235c.4-.216.84-.396 1.42-.396 1.02 0 1.73.62 1.73 1.49 0 .9-.69 1.6-1.69 1.6-.66 0-1.32-.36-1.89-.93l-.33.33c.55.56 1.35 1.01 2.21 1.01zm5.813 0C77.8 7.108 76.8 5.605 76.8 3.85c.002-1.737 1.02-3.258 2.62-3.258 1.602 0 2.602 1.503 2.602 3.258 0 1.737-1.018 3.258-2.62 3.258zm.017-.423c1.305 0 2.115-1.36 2.115-2.835 0-1.467-.828-2.835-2.132-2.835-1.306 0-2.116 1.35-2.116 2.835 0 1.458.828 2.835 2.133 2.835zm5.796.423c1.09 0 2.052-.738 2.052-1.836 0-1.25-1.18-1.728-2.233-1.8l2.133-2.44V.7h-3.942v.44h3.303l-2.17 2.503.11.26h.34c1.13 0 1.96.487 1.96 1.37 0 .836-.7 1.412-1.56 1.412-.83 0-1.46-.37-1.96-1.008l-.36.297c.51.666 1.28 1.134 2.31 1.134zm5.31 0c1.267 0 2.195-.837 2.195-2.025 0-1.143-.94-1.917-2.16-1.917-.58 0-.99.144-1.39.342l.16-2.358h3.13V.7h-3.54l-.18 3.05.36.235c.4-.216.84-.396 1.42-.396 1.02 0 1.73.62 1.73 1.49 0 .9-.69 1.6-1.69 1.6-.66 0-1.32-.36-1.89-.93l-.33.33c.55.56 1.35 1.01 2.21 1.01zm3.21.855c.54-.207.748-.504.748-1.062v-.66h-.594V7h.242v.08c0 .298-.144.478-.504.658l.11.225zM98.56 7H99V2.806h2.593V2.41H98.56V7zm3.13 0h.596v-.765h-.595V7zm4.77 0h.45V1.528l2.492 3.627h.036l2.493-3.627V7h.47V.7h-.44l-2.53 3.726L106.9.7h-.44V7zm9.647.108c-1.36 0-2.35-1.098-2.35-2.403 0-1.287 1-2.403 2.368-2.403 1.358 0 2.35 1.098 2.35 2.403 0 1.287-1 2.403-2.368 2.403zm.017-.414c1.017 0 1.873-.89 1.873-1.99 0-1.106-.856-1.988-1.89-1.988-1.035 0-1.873.89-1.873 1.99 0 1.106.83 1.988 1.89 1.988zm5.633.414c.847 0 1.404-.378 1.873-.91l-.325-.287c-.386.44-.873.79-1.52.79-1.053 0-1.89-.88-1.89-1.99 0-1.09.837-1.99 1.853-1.99.684 0 1.135.35 1.53.76l.306-.31c-.404-.46-.962-.85-1.826-.85-1.314 0-2.34 1.09-2.34 2.41 0 1.33 1.017 2.41 2.34 2.41zM124.77 7h.44V5.884l1.117-1.125L128.143 7h.558l-2.07-2.556 2.01-2.034h-.58l-2.84 2.943V2.41h-.44V7zm4.903 0V2.41h2.097c.89 0 1.486.44 1.486 1.143 0 .62-.405.9-.774 1.053.548.144 1.035.495 1.035 1.143 0 .76-.657 1.25-1.648 1.25h-2.2zm.44-.396h1.702c.766 0 1.243-.35 1.243-.918 0-.53-.47-.855-1.35-.855h-1.594v1.78zm0-2.142h1.595c.638 0 1.097-.306 1.097-.882 0-.46-.377-.774-1.07-.774h-1.62v1.656zm6.076 2.646c-.95 0-1.78-.486-1.78-1.458 0-.954.82-1.494 2-1.494.64 0 1.08.08 1.52.198v-.198c0-.927-.57-1.404-1.51-1.404-.56 0-1.02.153-1.44.37l-.16-.388c.5-.234.99-.396 1.62-.396.62 0 1.11.17 1.45.504.3.306.47.73.47 1.296V7h-.44v-.765c-.32.44-.88.873-1.76.873zm.02-.414c.93 0 1.73-.576 1.73-1.413v-.52c-.39-.1-.9-.2-1.56-.2-.97 0-1.51.43-1.51 1.09 0 .67.53 1.05 1.32 1.05zm3.39 1.27c.54-.208.75-.505.75-1.063v-.66h-.6V7h.25v.08c0 .298-.15.478-.51.658l.1.225zm5.38.503c.65 0 1.12-.342 1.53-1.305l1.99-4.752h-.49l-1.66 4.104-1.91-4.104h-.52l2.2 4.563c-.35.8-.66 1.08-1.14 1.08-.34 0-.54-.054-.78-.17l-.16.386c.302.13.56.19.91.19zm4.06-1.395c.84 0 1.4-.342 1.41-4.14v-.126h2.26V7h.44V2.41h-3.13v.243c-.02 3.735-.45 4.005-1.06 4.005-.09 0-.29-.045-.35-.063l-.08.405c.12.036.36.072.5.072zm5.6-.072h.59v-.765h-.6V7zm7.62.108c1.11 0 1.83-.44 2.5-1.098l-.32-.306c-.64.63-1.26.98-2.17.98-1.51 0-2.67-1.24-2.67-2.834 0-1.602 1.14-2.835 2.65-2.835.94 0 1.57.396 2.12.927l.3-.315c-.65-.594-1.3-1.035-2.42-1.035-1.82 0-3.15 1.476-3.15 3.258 0 1.827 1.33 3.258 3.13 3.258zm4.98 0c-.95 0-1.77-.486-1.77-1.458 0-.954.82-1.494 2-1.494.64 0 1.08.08 1.52.198v-.198c0-.927-.57-1.404-1.51-1.404-.56 0-1.02.153-1.44.37l-.16-.388c.5-.234 1-.396 1.63-.396.62 0 1.11.17 1.44.504.3.306.47.73.47 1.296V7H169v-.765c-.315.44-.882.873-1.755.873zm.03-.414c.93 0 1.73-.576 1.73-1.413v-.52c-.39-.1-.9-.2-1.56-.2-.97 0-1.51.43-1.51 1.09 0 .67.53 1.05 1.32 1.05zm2.93 1.602V6.604h.6c.4-.666.67-1.692.67-3.222V2.41h3.08v4.194h.74l-.09 1.692h-.36V7h-4.19l-.09 1.296h-.37zm1.09-1.692h2.82V2.806h-2.21v.828c0 1.224-.25 2.358-.61 2.97zm7.04.504c-1.36 0-2.35-1.098-2.35-2.403 0-1.287 1-2.403 2.37-2.403 1.36 0 2.35 1.098 2.35 2.403 0 1.287-1 2.403-2.36 2.403zm.02-.414c1.02 0 1.87-.89 1.87-1.99 0-1.106-.85-1.988-1.88-1.988s-1.87.89-1.87 1.99c0 1.106.83 1.988 1.89 1.988zm3.61.306V2.41h2.1c.89 0 1.49.44 1.49 1.143 0 .62-.41.9-.78 1.053.55.144 1.03.495 1.03 1.143 0 .76-.66 1.25-1.65 1.25h-2.196zm.44-.396h1.7c.77 0 1.25-.35 1.25-.918 0-.53-.47-.855-1.35-.855h-1.59v1.78zm0-2.142h1.6c.64 0 1.1-.306 1.1-.882 0-.46-.38-.774-1.07-.774h-1.62v1.656zM187.09 7h.44V4.85h3.052V7h.44V2.41h-.44v2.043h-3.052V2.41h-.44V7zm5.506 0h.44l3.115-4.005V7h.45V2.41h-.44l-3.11 4.005V2.41h-.44V7zm8.495 0h.45V2.41h-.44v2.142c-.43.297-1.11.504-1.66.504-.64 0-1.03-.36-1.03-.918V2.41h-.44v1.72c0 .88.6 1.33 1.5 1.33.61 0 1.3-.27 1.65-.467V7zm3.96.108c-1.2 0-2.25-.963-2.25-2.412 0-1.332.94-2.394 2.18-2.394 1.29 0 2.11 1.044 2.11 2.403 0 .08 0 .108-.01.18h-3.8c.08 1.143.9 1.81 1.8 1.81.71 0 1.2-.316 1.58-.72l.31.27c-.46.503-1.01.863-1.89.863zm-1.78-2.62h3.34c-.06-.926-.59-1.78-1.64-1.78-.91 0-1.61.764-1.69 1.78zm7.03 2.62c.85 0 1.4-.378 1.87-.91l-.32-.287c-.39.44-.87.79-1.52.79-1.05 0-1.89-.88-1.89-1.99 0-1.09.84-1.99 1.86-1.99.69 0 1.13.35 1.53.76l.31-.31c-.4-.46-.96-.85-1.83-.85-1.31 0-2.34 1.09-2.34 2.41 0 1.33 1.02 2.41 2.34 2.41zm3-.108h.45V5.884l1.12-1.125 1.8 2.24h.56l-2.07-2.56 2.01-2.04h-.58l-2.85 2.95V2.41h-.44V7zm6.12.108c-.94 0-1.77-.486-1.77-1.458 0-.954.82-1.494 2.01-1.494.64 0 1.08.08 1.52.198v-.198c0-.927-.56-1.404-1.51-1.404-.56 0-1.01.153-1.44.37l-.16-.388c.51-.234 1-.396 1.63-.396.62 0 1.12.17 1.45.504.31.306.47.73.47 1.296V7h-.43v-.765c-.31.44-.88.873-1.75.873zm.03-.414c.94 0 1.74-.576 1.74-1.413v-.52c-.38-.1-.9-.2-1.56-.2-.97 0-1.5.43-1.5 1.09 0 .67.53 1.05 1.32 1.05zm3.27.306l1.45-1.827c-.73-.135-1.32-.63-1.32-1.395 0-.81.63-1.368 1.68-1.368h2.06V7h-.44V5.236h-1.51L223.27 7h-.54zm1.89-2.16h1.53V2.806h-1.54c-.8 0-1.27.396-1.27 1 0 .638.55 1.034 1.29 1.034zm3.3 3.123c.54-.207.75-.504.75-1.062v-.66h-.59V7h.24v.08c0 .298-.14.478-.5.658l.11.225zm4.11.333V6.604h.6c.41-.666.68-1.692.68-3.222V2.41h3.08v4.194h.74l-.09 1.692h-.36V7h-4.18l-.09 1.296h-.37zm1.09-1.692h2.83V2.806h-2.21v.828c0 1.224-.25 2.358-.61 2.97zm4.91.396h.6v-.765h-.59V7zm2.4 0h.46V.655h-.36l-1.44.53.12.37 1.21-.414V7zm4.28.108c-.65 0-1.23-.252-1.6-.63-.52-.522-.8-1.152-.8-2.475 0-1.9 1-3.41 2.56-3.41.72 0 1.27.278 1.82.728l-.3.36c-.48-.43-.96-.66-1.55-.66-1.24 0-2.06 1.27-2.06 3.12v.16c.36-.61.95-1.17 1.97-1.17 1.14 0 2.17.79 2.17 1.93 0 1.19-.96 2.07-2.21 2.07zm.03-.423c1.02 0 1.69-.738 1.69-1.647 0-.864-.71-1.512-1.71-1.512-1.03 0-1.75.783-1.75 1.575 0 .9.77 1.59 1.78 1.59zm3.25 1.278c.54-.207.75-.504.75-1.062v-.66h-.59V7h.25v.08c0 .298-.14.478-.5.658l.11.225zm6.85-.855c.85 0 1.41-.378 1.87-.91l-.32-.287c-.38.44-.87.79-1.52.79-1.05 0-1.89-.88-1.89-1.99 0-1.09.84-1.99 1.85-1.99.69 0 1.14.35 1.53.76l.31-.31c-.4-.46-.96-.85-1.82-.85-1.313 0-2.34 1.09-2.34 2.41 0 1.33 1.018 2.41 2.34 2.41zM258.99 7h.442V2.806h1.72V2.41h-3.88v.396h1.72V7zm3.168 1.44V2.41h.44v1.026c.397-.603.982-1.134 1.892-1.134 1.106 0 2.23.89 2.23 2.403 0 1.494-1.124 2.403-2.23 2.403-.918 0-1.512-.522-1.89-1.098v2.43h-.442zm2.286-1.755c1 0 1.8-.73 1.8-1.98 0-1.206-.837-1.98-1.8-1.98-.954 0-1.872.8-1.872 1.99 0 1.178.918 1.97 1.873 1.97zM267.9 7h.594v-.765h-.595V7zm5.442 0h.46V.655h-.36l-1.44.53.125.37 1.215-.414V7zm1.89.963c.54-.207.746-.504.746-1.062v-.66h-.594V7h.243v.08c0 .298-.144.478-.504.658l.108.225zm7.8-.855c-1.907 0-3.16-1.52-3.16-3.258 0-1.72 1.27-3.258 3.178-3.258 1.91 0 3.16 1.52 3.16 3.258 0 1.72-1.27 3.258-3.177 3.258zm.02-.423c1.555 0 2.67-1.26 2.67-2.835.002-1.557-1.132-2.835-2.69-2.835-1.556 0-2.672 1.26-2.672 2.835 0 1.557 1.133 2.835 2.69 2.835zM287.7 7h.47l-.002-5.868h3.465V.7H287.7V7zm5.21 0V.7h2.287c1.385 0 2.34.71 2.34 1.944-.002 1.323-1.144 2.007-2.46 2.007h-1.7V7h-.467zm.47-2.78h1.726c1.17 0 1.962-.613 1.962-1.567 0-1-.774-1.52-1.907-1.52h-1.78V4.22zM298.822 7h.47V4.048h4.03V7h.47V.7h-.47v2.916h-4.03V.7h-.47V7zm10.015 0h.46l-.002-6.345h-.36l-1.44.53.127.37 1.214-.414V7zm2.915 0h.46V.655h-.36l-1.442.53.126.37 1.214-.414V7zm4.103.108c1.09 0 2.05-.738 2.05-1.836 0-1.25-1.178-1.728-2.23-1.8l2.132-2.44V.7h-3.942v.44h3.303L315 3.643l.118.26h.34c1.136 0 1.964.487 1.964 1.37 0 .836-.693 1.412-1.558 1.412-.827 0-1.457-.37-1.962-1.008l-.36.297c.514.666 1.288 1.134 2.314 1.134zm3.77-.108h.512l2.872-5.958V.7h-4.18v.45h3.65L319.62 7zm5.183 0h.514l2.87-5.958V.7h-4.175v.45h3.653L324.81 7zm7.02 0V5.46h-3.41l-.163-.35 3.6-4.455h.422v4.4h1.026v.406h-1.026V7h-.45zm-3.006-1.944h3.005V1.33l-3.006 3.726zm7.856 2.052c-.65 0-1.225-.252-1.603-.63-.522-.522-.8-1.152-.8-2.475 0-1.9 1-3.41 2.565-3.41.72 0 1.27.278 1.817.728l-.298.36c-.49-.43-.97-.66-1.56-.66-1.24 0-2.06 1.27-2.06 3.12v.16c.36-.61.94-1.17 1.97-1.17 1.14 0 2.17.79 2.17 1.93 0 1.19-.97 2.07-2.21 2.07zm.036-.423c1.017 0 1.683-.738 1.683-1.647 0-.864-.712-1.512-1.712-1.512-1.034 0-1.755.783-1.755 1.575 0 .9.766 1.59 1.783 1.59zM339.81 7h4.303v-.45h-3.565l1.926-1.746c1.108-1.008 1.576-1.584 1.576-2.448 0-1-.802-1.746-1.873-1.746-1.107 0-1.692.513-2.24 1.35l.35.234c.523-.756 1.045-1.17 1.846-1.17.756 0 1.422.53 1.422 1.35 0 .666-.36 1.206-1.396 2.15l-2.35 2.125V7zm5.21 0h4.303v-.45h-3.564l1.92-1.746c1.1-1.008 1.57-1.584 1.57-2.448 0-1-.8-1.746-1.88-1.746-1.11 0-1.69.513-2.24 1.35l.35.234c.52-.756 1.04-1.17 1.84-1.17.75 0 1.42.53 1.42 1.35 0 .666-.36 1.206-1.4 2.15L345 6.65V7zm7.614.09c-1.324 0-2.34-.73-2.34-1.79 0-.74.603-1.297 1.394-1.558-.62-.252-1.178-.72-1.178-1.485 0-.98 1.035-1.647 2.124-1.647 1.09 0 2.123.666 2.123 1.665 0 .747-.558 1.215-1.178 1.467.79.26 1.39.82 1.39 1.575 0 1.044-1.02 1.773-2.34 1.773zm0-.423c1.16 0 1.853-.62 1.853-1.35 0-.783-.828-1.35-1.853-1.35-1.026 0-1.855.567-1.855 1.368 0 .71.69 1.332 1.85 1.332zm0-3.096c.89 0 1.637-.52 1.637-1.31.01-.71-.72-1.22-1.63-1.22-.92 0-1.64.52-1.64 1.24 0 .78.75 1.3 1.64 1.3zm5.37 3.54c-.78 0-1.376-.34-1.898-.78l.298-.36c.53.48 1.034.72 1.61.72 1.224 0 2.09-1.25 2.09-3.03v-.22c-.36.65-.974 1.22-1.964 1.22-1.268 0-2.178-.84-2.178-1.94 0-1.16.9-2.11 2.214-2.11.675 0 1.225.26 1.603.64.48.49.79 1.2.79 2.48 0 1.98-1.1 3.4-2.57 3.4zm.154-2.87c1.07 0 1.755-.81 1.755-1.62 0-.89-.747-1.6-1.79-1.6-1.036 0-1.674.8-1.674 1.69 0 .88.71 1.53 1.71 1.53zm5.597 2.87c1.09 0 2.053-.74 2.053-1.83 0-1.25-1.18-1.73-2.233-1.8l2.134-2.44V.7h-3.95v.44h3.3l-2.17 2.503.11.26h.34c1.13 0 1.96.487 1.96 1.37 0 .836-.7 1.412-1.56 1.412-.83 0-1.46-.37-1.97-1.008l-.36.297c.51.666 1.28 1.134 2.31 1.134zm5.427-.02c-1.324 0-2.34-.73-2.34-1.79 0-.74.603-1.29 1.394-1.55-.62-.25-1.178-.72-1.178-1.48 0-.98 1.034-1.64 2.124-1.64s2.123.67 2.123 1.67c0 .75-.558 1.22-1.178 1.47.79.26 1.394.82 1.394 1.58.01 1.05-1.01 1.78-2.33 1.78zm0-.42c1.16 0 1.853-.62 1.853-1.35 0-.78-.828-1.35-1.853-1.35-1.026 0-1.855.57-1.855 1.37 0 .71.694 1.33 1.855 1.33zm0-3.09c.89 0 1.637-.52 1.637-1.31 0-.71-.72-1.22-1.64-1.22-.92 0-1.64.52-1.64 1.24 0 .78.75 1.3 1.64 1.3z" fill="#FFF" fill-rule="evenodd"/>
</svg>
