<svg width="301" height="228" xmlns="http://www.w3.org/2000/svg">
  <path d="M.28 68.346V47.614h43.736v20.732H.28zM63.552 102V24.042l-17.324 4.26-4.544-17.892 28.542-8.52h14.91V102H63.552zm77.756 1.704c-26.554 0-44.02-22.294-44.02-51.404 0-28.826 17.892-51.404 44.304-51.404 26.27 0 44.02 22.294 44.02 51.404 0 28.826-17.75 51.404-44.304 51.404zm.284-19.738c13.206 0 21.584-13.348 21.584-31.666 0-18.034-8.804-31.666-21.868-31.666-13.064 0-21.584 13.206-21.584 31.666 0 18.176 8.662 31.666 21.868 31.666zM215.088 52.3c-14.342 0-23.998-11.218-23.998-25.418 0-14.058 9.798-25.418 24.282-25.418 14.342 0 23.998 11.218 23.998 25.418 0 13.916-9.798 25.418-24.282 25.418zM201.03 102l72.562-99.4h16.898L217.928 102H201.03zm75.118 1.136c-14.342 0-23.998-11.218-23.998-25.418 0-14.058 9.798-25.418 24.282-25.418 14.342 0 23.998 11.218 23.998 25.418 0 13.916-9.798 25.418-24.282 25.418zm-60.776-63.758c5.964 0 9.088-5.822 9.088-12.496s-3.692-12.496-9.372-12.496c-5.964 0-9.088 5.68-9.088 12.496 0 6.674 3.692 12.496 9.372 12.496zm61.06 50.836c5.964 0 9.088-5.822 9.088-12.496s-3.692-12.496-9.372-12.496c-5.964 0-9.088 5.68-9.088 12.496 0 6.674 3.692 12.496 9.372 12.496zM3.636 218v-44.8h37.376V218h-9.856v-35.904H13.492V218H3.636zm68.688.768c-13.824 0-23.744-10.304-23.744-23.168 0-12.736 10.048-23.168 23.872-23.168s23.744 10.304 23.744 23.168c0 12.736-10.048 23.168-23.872 23.168zm.128-9.088c7.936 0 13.44-6.272 13.44-14.08 0-7.68-5.632-14.08-13.568-14.08s-13.44 6.272-13.44 14.08c0 7.68 5.632 14.08 13.568 14.08zm31.312 8.32v-44.8h10.624l11.776 18.944L137.94 173.2h10.624V218h-9.792v-29.248l-12.608 19.136h-.256l-12.48-18.944V218h-9.664zm50.512 0l19.2-45.12h9.088l19.2 45.12H191.46l-4.096-10.048H168.42L164.324 218h-10.048zm17.664-18.752h11.904l-5.952-14.528-5.952 14.528zm30.8 28.096v-18.24h4.224c3.328-7.744 4.928-15.36 4.928-30.656V173.2h32.576v35.904h5.376l-1.28 18.24h-8.256V218h-28.032l-.64 9.344h-8.896zm31.872-45.248h-13.248v4.544c0 9.472-1.472 16.256-4.032 22.464h17.28v-27.008zM251.716 218l19.2-45.12h9.088l19.2 45.12H288.9l-4.096-10.048H265.86L261.764 218h-10.048zm17.664-18.752h11.904l-5.952-14.528-5.952 14.528zM2.025 158v-21.714h18.816V158h-3.234v-18.858H5.259V158H2.025zm35.152.504c-6.51 0-11.256-5.124-11.256-11.34 0-6.132 4.788-11.34 11.34-11.34 6.51 0 11.298 5.124 11.298 11.34 0 6.132-4.83 11.34-11.382 11.34zm.084-2.898c4.704 0 7.98-3.78 7.98-8.442 0-4.662-3.486-8.484-8.064-8.484-4.704 0-7.938 3.822-7.938 8.484s3.444 8.442 8.022 8.442zM65.397 158v-21.714h18.816V158h-3.234v-18.858H68.631V158h-3.234zm25.24 6.72v-28.434h3.234v4.368c1.764-2.604 4.326-4.83 8.316-4.83 5.208 0 10.374 4.116 10.374 11.34 0 7.098-5.124 11.298-10.374 11.298-4.032 0-6.636-2.184-8.316-4.62v10.878h-3.234zm10.962-9.156c4.2 0 7.644-3.108 7.644-8.442 0-5.124-3.528-8.4-7.644-8.4-4.032 0-7.854 3.402-7.854 8.442s3.822 8.4 7.854 8.4zm26.038 2.94c-6.51 0-11.256-5.124-11.256-11.34 0-6.132 4.788-11.34 11.34-11.34 6.51 0 11.298 5.124 11.298 11.34 0 6.132-4.83 11.34-11.382 11.34zm.084-2.898c4.704 0 7.98-3.78 7.98-8.442 0-4.662-3.486-8.484-8.064-8.484-4.704 0-7.938 3.822-7.938 8.484s3.444 8.442 8.022 8.442zM144.057 158v-21.714h3.066l8.106 11.424 8.106-11.424h3.108V158h-3.276v-16.548l-8.022 11.004-7.938-11.004V158h-3.15zm37.882.504c-6.51 0-11.256-5.124-11.256-11.34 0-6.132 4.788-11.34 11.34-11.34 6.51 0 11.298 5.124 11.298 11.34 0 6.132-4.83 11.34-11.382 11.34zm.084-2.898c4.704 0 7.98-3.78 7.98-8.442 0-4.662-3.486-8.484-8.064-8.484-4.704 0-7.938 3.822-7.938 8.484s3.444 8.442 8.022 8.442zM198.359 158v-21.714h3.234v12.516l11.886-12.516h3.99l-9.072 9.408L217.721 158h-3.822l-7.728-9.954-4.578 4.704V158h-3.234zm31.666.504c-6.51 0-11.256-5.124-11.256-11.34 0-6.132 4.788-11.34 11.34-11.34 6.51 0 11.298 5.124 11.298 11.34 0 6.132-4.83 11.34-11.382 11.34zm.084-2.898c4.704 0 7.98-3.78 7.98-8.442 0-4.662-3.486-8.484-8.064-8.484-4.704 0-7.938 3.822-7.938 8.484s3.444 8.442 8.022 8.442zm12.724 7.812v-8.274h2.352c1.764-3.234 2.898-7.77 2.898-15.078v-3.78h15.456v18.858h3.276l-.504 8.274h-2.688V158h-17.556l-.588 5.418h-2.646zm5.796-8.274h11.676v-16.002h-9.114v3.024c0 5.376-1.05 10.164-2.562 12.978zm25.198 9.702c-1.806 0-3.15-.378-4.62-1.092l1.092-2.562c1.05.546 2.016.798 3.402.798 1.932 0 3.15-1.008 4.452-4.074l-9.87-21.63h3.57l7.896 18.102 6.972-18.102h3.444l-9.114 22.428c-1.848 4.494-3.948 6.132-7.224 6.132zm20.494-24.15v-4.41h3.864v4.41h-3.864zm0 17.304v-4.41h3.864V158h-3.864z" fill="#FFF" fill-rule="evenodd"/>
</svg>
