<svg width="301" height="226" xmlns="http://www.w3.org/2000/svg">
  <path d="M.28 68.346V47.614h43.736v20.732H.28zM63.552 102V24.042l-17.324 4.26-4.544-17.892 28.542-8.52h14.91V102H63.552zm77.756 1.704c-26.554 0-44.02-22.294-44.02-51.404 0-28.826 17.892-51.404 44.304-51.404 26.27 0 44.02 22.294 44.02 51.404 0 28.826-17.75 51.404-44.304 51.404zm.284-19.738c13.206 0 21.584-13.348 21.584-31.666 0-18.034-8.804-31.666-21.868-31.666-13.064 0-21.584 13.206-21.584 31.666 0 18.176 8.662 31.666 21.868 31.666zM215.088 52.3c-14.342 0-23.998-11.218-23.998-25.418 0-14.058 9.798-25.418 24.282-25.418 14.342 0 23.998 11.218 23.998 25.418 0 13.916-9.798 25.418-24.282 25.418zM201.03 102l72.562-99.4h16.898L217.928 102H201.03zm75.118 1.136c-14.342 0-23.998-11.218-23.998-25.418 0-14.058 9.798-25.418 24.282-25.418 14.342 0 23.998 11.218 23.998 25.418 0 13.916-9.798 25.418-24.282 25.418zm-60.776-63.758c5.964 0 9.088-5.822 9.088-12.496s-3.692-12.496-9.372-12.496c-5.964 0-9.088 5.68-9.088 12.496 0 6.674 3.692 12.496 9.372 12.496zm61.06 50.836c5.964 0 9.088-5.822 9.088-12.496s-3.692-12.496-9.372-12.496c-5.964 0-9.088 5.68-9.088 12.496 0 6.674 3.692 12.496 9.372 12.496zM3.388 225v-58.8h13.944l15.456 24.864L48.244 166.2h13.944V225H49.336v-38.388l-16.548 25.116h-.336l-16.38-24.864V225H3.388zm71.712 0v-58.8h44.352v11.508h-31.5v11.928h27.72v11.508h-27.72v12.348h31.92V225H75.1zm68.772 0v-46.872H125.98V166.2h48.72v11.928h-17.892V225h-12.936zm39.54 0v-58.8h24.024c14.028 0 22.512 8.316 22.512 20.496 0 13.608-10.584 20.664-23.772 20.664h-9.828V225h-12.936zm12.936-29.148h10.248c6.468 0 10.248-3.864 10.248-9.072 0-5.796-4.032-8.904-10.5-8.904h-9.996v17.976zm70.536 30.156c-18.144 0-31.164-13.524-31.164-30.408 0-16.716 13.188-30.408 31.332-30.408s31.164 13.524 31.164 30.408c0 16.716-13.188 30.408-31.332 30.408zm.168-11.928c10.416 0 17.64-8.232 17.64-18.48 0-10.08-7.392-18.48-17.808-18.48s-17.64 8.232-17.64 18.48c0 10.08 7.392 18.48 17.808 18.48zM2.025 152v-21.714h18.816V152h-3.234v-18.858H5.259V152H2.025zm35.152.504c-6.51 0-11.256-5.124-11.256-11.34 0-6.132 4.788-11.34 11.34-11.34 6.51 0 11.298 5.124 11.298 11.34 0 6.132-4.83 11.34-11.382 11.34zm.084-2.898c4.704 0 7.98-3.78 7.98-8.442 0-4.662-3.486-8.484-8.064-8.484-4.704 0-7.938 3.822-7.938 8.484s3.444 8.442 8.022 8.442zM65.397 152v-21.714h18.816V152h-3.234v-18.858H68.631V152h-3.234zm25.24 6.72v-28.434h3.234v4.368c1.764-2.604 4.326-4.83 8.316-4.83 5.208 0 10.374 4.116 10.374 11.34 0 7.098-5.124 11.298-10.374 11.298-4.032 0-6.636-2.184-8.316-4.62v10.878h-3.234zm10.962-9.156c4.2 0 7.644-3.108 7.644-8.442 0-5.124-3.528-8.4-7.644-8.4-4.032 0-7.854 3.402-7.854 8.442s3.822 8.4 7.854 8.4zm26.038 2.94c-6.51 0-11.256-5.124-11.256-11.34 0-6.132 4.788-11.34 11.34-11.34 6.51 0 11.298 5.124 11.298 11.34 0 6.132-4.83 11.34-11.382 11.34zm.084-2.898c4.704 0 7.98-3.78 7.98-8.442 0-4.662-3.486-8.484-8.064-8.484-4.704 0-7.938 3.822-7.938 8.484s3.444 8.442 8.022 8.442zM144.057 152v-21.714h3.066l8.106 11.424 8.106-11.424h3.108V152h-3.276v-16.548l-8.022 11.004-7.938-11.004V152h-3.15zm37.882.504c-6.51 0-11.256-5.124-11.256-11.34 0-6.132 4.788-11.34 11.34-11.34 6.51 0 11.298 5.124 11.298 11.34 0 6.132-4.83 11.34-11.382 11.34zm.084-2.898c4.704 0 7.98-3.78 7.98-8.442 0-4.662-3.486-8.484-8.064-8.484-4.704 0-7.938 3.822-7.938 8.484s3.444 8.442 8.022 8.442zM198.359 152v-21.714h3.234v12.516l11.886-12.516h3.99l-9.072 9.408L217.721 152h-3.822l-7.728-9.954-4.578 4.704V152h-3.234zm31.666.504c-6.51 0-11.256-5.124-11.256-11.34 0-6.132 4.788-11.34 11.34-11.34 6.51 0 11.298 5.124 11.298 11.34 0 6.132-4.83 11.34-11.382 11.34zm.084-2.898c4.704 0 7.98-3.78 7.98-8.442 0-4.662-3.486-8.484-8.064-8.484-4.704 0-7.938 3.822-7.938 8.484s3.444 8.442 8.022 8.442zm12.724 7.812v-8.274h2.352c1.764-3.234 2.898-7.77 2.898-15.078v-3.78h15.456v18.858h3.276l-.504 8.274h-2.688V152h-17.556l-.588 5.418h-2.646zm5.796-8.274h11.676v-16.002h-9.114v3.024c0 5.376-1.05 10.164-2.562 12.978zm25.198 9.702c-1.806 0-3.15-.378-4.62-1.092l1.092-2.562c1.05.546 2.016.798 3.402.798 1.932 0 3.15-1.008 4.452-4.074l-9.87-21.63h3.57l7.896 18.102 6.972-18.102h3.444l-9.114 22.428c-1.848 4.494-3.948 6.132-7.224 6.132zm20.494-24.15v-4.41h3.864v4.41h-3.864zm0 17.304v-4.41h3.864V152h-3.864z" fill="#FFF" fill-rule="evenodd"/>
</svg>
