<svg width="360" height="162" viewBox="0 0 360 162" xmlns="http://www.w3.org/2000/svg">
  <title>
    hero_2
  </title>
  <g fill="#FFF" fill-rule="evenodd">
    <path d="M25.202 19.312c3.796 0 6.5-2.418 6.5-5.98 0-3.51-2.756-5.616-6.292-5.616-1.508 0-2.522.338-3.588.806l.39-5.824h8.684V.8H20.418l-.52 8.866 1.378.91c1.066-.572 2.288-1.04 3.822-1.04 2.652 0 4.524 1.56 4.524 3.822 0 2.366-1.794 4.082-4.394 4.082-1.846 0-3.588-.962-5.174-2.496l-1.352 1.482c1.638 1.638 3.9 2.886 6.5 2.886zm17.616 0c-4.706 0-7.67-4.264-7.67-9.412 0-5.096 3.042-9.412 7.722-9.412 4.68 0 7.644 4.264 7.644 9.412 0 5.096-3.016 9.412-7.696 9.412zm.052-1.872c3.406 0 5.512-3.51 5.512-7.54 0-3.978-2.184-7.54-5.564-7.54-3.406 0-5.538 3.484-5.538 7.54 0 3.978 2.184 7.54 5.59 7.54zm18.838 1.872c-4.706 0-7.67-4.264-7.67-9.412 0-5.096 3.042-9.412 7.722-9.412 4.68 0 7.644 4.264 7.644 9.412 0 5.096-3.016 9.412-7.696 9.412zm.052-1.872c3.406 0 5.512-3.51 5.512-7.54 0-3.978-2.184-7.54-5.564-7.54-3.406 0-5.538 3.484-5.538 7.54 0 3.978 2.184 7.54 5.59 7.54zm16.914-1.3h1.924v-5.356h5.408V8.912h-5.408V3.556h-1.924v5.356h-5.408v1.872h5.408v5.356zm26.236 3.172c-4.082 0-6.812-2.886-6.812-7.566 0-4.342.338-8.502 5.018-9.62l7.488-1.768.39 1.69-7.28 1.794c-2.782.702-3.718 2.21-3.926 4.784.936-1.586 2.704-2.912 5.564-2.912 3.51 0 6.448 2.99 6.448 6.682 0 3.744-2.912 6.916-6.89 6.916zm.052-1.794c2.782 0 4.758-2.262 4.758-5.07 0-2.808-2.106-5.07-4.81-5.07-2.782 0-4.758 2.262-4.758 5.07 0 2.808 2.106 5.07 4.81 5.07zm10.752 5.642V5.558h2.002v2.704c1.092-1.612 2.678-2.99 5.148-2.99 3.224 0 6.422 2.548 6.422 7.02 0 4.394-3.172 6.994-6.422 6.994-2.496 0-4.108-1.352-5.148-2.86v6.734h-2.002zm6.786-5.668c2.6 0 4.732-1.924 4.732-5.226 0-3.172-2.184-5.2-4.732-5.2-2.496 0-4.862 2.106-4.862 5.226s2.366 5.2 4.862 5.2zm16.654 1.82c-3.692 0-6.708-2.834-6.708-7.02 0-3.9 2.73-7.02 6.448-7.02 3.978 0 6.266 3.172 6.266 7.124 0 .182 0 .39-.026.702h-10.66c.286 2.834 2.366 4.472 4.732 4.472 1.846 0 3.146-.754 4.238-1.898l1.248 1.118c-1.352 1.508-2.99 2.522-5.538 2.522zm-4.68-7.826h8.658c-.234-2.444-1.638-4.524-4.29-4.524-2.314 0-4.082 1.924-4.368 4.524zM148.97 19h2.002v-5.876h7.748V19h2.002V5.558h-2.002v5.798h-7.748V5.558h-2.002V19zm14.548 3.354v-5.122h1.456c1.092-2.002 1.794-4.81 1.794-9.334v-2.34h9.568v11.674h2.028l-.312 5.122h-1.664V19H165.52l-.364 3.354h-1.638zm3.588-5.122h7.228V7.326h-5.642v1.872c0 3.328-.65 6.292-1.586 8.034zm20.45 2.08c-4.03 0-6.968-3.172-6.968-7.02 0-3.796 2.964-7.02 7.02-7.02 4.03 0 6.994 3.172 6.994 7.02 0 3.796-2.99 7.02-7.046 7.02zm.052-1.794c2.912 0 4.94-2.34 4.94-5.226s-2.158-5.252-4.992-5.252c-2.912 0-4.914 2.366-4.914 5.252 0 2.886 2.132 5.226 4.966 5.226zM198.516 19V5.558h6.5c2.678 0 4.394 1.326 4.394 3.354 0 1.768-1.118 2.626-2.236 3.094 1.612.442 2.964 1.43 2.964 3.328 0 2.262-1.924 3.666-4.888 3.666h-6.734zm2.002-1.716h4.472c1.924 0 3.094-.858 3.094-2.262 0-1.3-1.17-2.08-3.354-2.08h-4.212v4.342zm0-5.954h4.134c1.612 0 2.73-.754 2.73-2.158 0-1.118-.936-1.898-2.678-1.898h-4.186v4.056zM222.152 19h2.002v-3.25l2.834-2.912L231.772 19h2.366l-5.772-7.618 5.616-5.824h-2.47l-7.358 7.748V5.558h-2.002V19zm20.398.312c-4.03 0-6.968-3.172-6.968-7.02 0-3.796 2.964-7.02 7.02-7.02 4.03 0 6.994 3.172 6.994 7.02 0 3.796-2.99 7.02-7.046 7.02zm.052-1.794c2.912 0 4.94-2.34 4.94-5.226s-2.158-5.252-4.992-5.252c-2.912 0-4.914 2.366-4.914 5.252 0 2.886 2.132 5.226 4.966 5.226zm16.966 1.794c2.522 0 4.134-1.092 5.486-2.6l-1.326-1.222c-1.066 1.144-2.34 2.028-4.056 2.028-2.808 0-4.94-2.314-4.94-5.226 0-2.938 2.08-5.252 4.81-5.252 1.82 0 3.068.858 4.134 1.976l1.274-1.352c-1.248-1.326-2.834-2.392-5.382-2.392-3.926 0-6.89 3.224-6.89 7.02 0 3.822 2.964 7.02 6.89 7.02zm9.088-.312h1.95V8.756l4.914 6.812 4.966-6.812V19h2.028V5.558h-1.924l-5.018 7.072-5.018-7.072h-1.898V19zm24.506.312c-3.692 0-6.708-2.834-6.708-7.02 0-3.9 2.73-7.02 6.448-7.02 3.978 0 6.266 3.172 6.266 7.124 0 .182 0 .39-.026.702h-10.66c.286 2.834 2.366 4.472 4.732 4.472 1.846 0 3.146-.754 4.238-1.898l1.248 1.118c-1.352 1.508-2.99 2.522-5.538 2.522zm-4.68-7.826h8.658c-.234-2.444-1.638-4.524-4.29-4.524-2.314 0-4.082 1.924-4.368 4.524zM305.708 19h2.028V7.326h4.81V5.558h-11.648v1.768h4.81V19zm10.05 0h1.924l8.008-10.634V19h2.002V5.558h-1.95l-7.982 10.634V5.558h-2.002V19zm16.706 0h2.002v-3.25l2.834-2.912L342.084 19h2.366l-5.772-7.618 5.616-5.824h-2.47l-7.358 7.748V5.558h-2.002V19zm15.042 0h1.924l8.008-10.634V19h2.002V5.558h-1.95l-7.982 10.634V5.558h-2.002V19z"/>
    <circle cx="3" cy="10" r="3"/>
    <g transform="translate(0 139)">
      <path d="M28.268 19.312c3.302 0 5.382-1.17 7.28-3.094l-1.352-1.43c-1.742 1.664-3.38 2.626-5.876 2.626-4.004 0-7.046-3.302-7.046-7.514 0-4.238 3.016-7.514 7.046-7.514 2.47 0 4.186 1.04 5.72 2.496l1.352-1.456C33.572 1.71 31.648.488 28.346.488c-5.356 0-9.204 4.264-9.204 9.412 0 5.278 3.874 9.412 9.126 9.412zM39.098 19H41.1v-3.25l2.834-2.912L48.718 19h2.366l-5.772-7.618 5.616-5.824h-2.47L41.1 13.306V5.558h-2.002V19zm15.042 0h1.924l8.008-10.634V19h2.002V5.558h-1.95l-7.982 10.634V5.558H54.14V19zm14.73 3.354v-5.122h1.456c1.092-2.002 1.794-4.81 1.794-9.334v-2.34h9.568v11.674h2.028l-.312 5.122H81.74V19H70.872l-.364 3.354H68.87zm3.588-5.122h7.228V7.326h-5.642v1.872c0 3.328-.65 6.292-1.586 8.034zM86.772 19h2.002v-3.25l2.834-2.912L96.392 19h2.366l-5.772-7.618 5.616-5.824h-2.47l-7.358 7.748V5.558h-2.002V19zm15.042 0h1.924l8.008-10.634V19h2.002V5.558h-1.95l-7.982 10.634V5.558h-2.002V19zm24.806 0h1.924l8.008-10.634V19h2.002V5.558h-1.95l-7.982 10.634V5.558h-2.002V19zm28.81.286c-2.522 0-5.018-1.43-5.018-4.238 0-2.886 2.34-4.394 5.746-4.394 1.716 0 2.912.234 4.108.572v-.416c0-2.392-1.456-3.64-3.978-3.64-1.586 0-2.834.39-4.082.962l-.598-1.638c1.482-.676 2.912-1.144 4.888-1.144 1.898 0 3.38.52 4.342 1.482.936.936 1.404 2.236 1.404 3.952V19h-1.976v-2.002c-.936 1.196-2.47 2.288-4.836 2.288zm.39-1.612c2.47 0 4.472-1.482 4.472-3.614v-1.248c-.988-.286-2.288-.572-3.926-.572-2.496 0-3.926 1.092-3.926 2.756 0 1.69 1.56 2.678 3.38 2.678zM166.78 19h2.002v-3.25l2.834-2.912L176.4 19h2.366l-5.772-7.618 5.616-5.824h-2.47l-7.358 7.748V5.558h-2.002V19zm26.638 3.354h1.664l.312-5.122h-2.028V5.558h-2.002v11.674h-7.54V5.558h-2.002V19h11.596v3.354zM198.45 19h1.924l8.008-10.634V19h2.002V5.558h-1.95l-7.982 10.634V5.558h-2.002V19zm16.706 0h1.924l8.008-10.634V19h2.002V5.558h-1.95l-7.982 10.634V5.558h-2.002V19z"/>
      <circle cx="3" cy="9" r="3"/>
    </g>
    <g transform="translate(0 70)">
      <path d="M19.583 19V.8h13.052v1.872H21.637v5.59h5.382c3.87 0 6.91 1.638 6.91 5.304 0 3.562-2.65 5.434-6.71 5.434h-7.64zm2.054-1.872h5.434c2.94 0 4.81-1.04 4.81-3.666 0-2.288-1.89-3.38-4.91-3.38h-5.33v7.046zm22.192 2.184c-3.7 0-6.71-2.834-6.71-7.02 0-3.9 2.73-7.02 6.45-7.02 3.97 0 6.26 3.172 6.26 7.124 0 .182 0 .39-.03.702H39.15c.285 2.834 2.365 4.472 4.73 4.472 1.847 0 3.147-.754 4.24-1.898l1.247 1.118c-1.352 1.508-2.99 2.522-5.538 2.522zm-4.68-7.826h8.65c-.24-2.444-1.64-4.524-4.29-4.524-2.32 0-4.09 1.924-4.37 4.524zm20.55 7.826c2.52 0 4.13-1.092 5.48-2.6l-1.32-1.222c-1.07 1.144-2.34 2.028-4.06 2.028-2.81 0-4.94-2.314-4.94-5.226 0-2.938 2.08-5.252 4.81-5.252 1.82 0 3.07.858 4.13 1.976l1.27-1.352c-1.248-1.326-2.83-2.392-5.38-2.392-3.928 0-6.89 3.224-6.89 7.02 0 3.822 2.962 7.02 6.89 7.02zM68.79 19h2.003V7.326h7.644V19h2.002V5.558H68.79V19zm15.77.208c2.55 0 4.447-1.092 4.447-11.57v-.312h5.616V19h2.002V5.558H87.11v1.118c0 10.088-1.353 10.79-2.965 10.79-.234 0-.702-.104-.962-.182L82.95 19c.415.104 1.17.208 1.61.208zm20.84.078c-2.52 0-5.017-1.43-5.017-4.238 0-2.886 2.34-4.394 5.746-4.394 1.71 0 2.91.234 4.1.572v-.416c0-2.392-1.46-3.64-3.98-3.64-1.59 0-2.84.39-4.09.962l-.598-1.638c1.48-.676 2.91-1.144 4.886-1.144 1.9 0 3.38.52 4.342 1.482.934.936 1.402 2.236 1.402 3.952V19h-1.977v-2.002c-.938 1.196-2.47 2.288-4.838 2.288zm.39-1.612c2.47 0 4.473-1.482 4.473-3.614v-1.248c-.988-.286-2.288-.572-3.926-.572-2.496 0-3.926 1.092-3.926 2.756 0 1.69 1.56 2.678 3.38 2.678zM120 19h2.03V7.326h4.81V5.558h-11.65v1.768H120V19zm10.05 0h2.003v-5.876h7.748V19h2.01V5.558h-2.01v5.798h-7.74V5.558h-2V19zm20.53.286c-2.523 0-5.02-1.43-5.02-4.238 0-2.886 2.34-4.394 5.747-4.394 1.716 0 2.912.234 4.108.572v-.416c0-2.392-1.456-3.64-3.978-3.64-1.586 0-2.834.39-4.082.962l-.598-1.638c1.482-.676 2.912-1.144 4.888-1.144 1.898 0 3.38.52 4.342 1.482.936.936 1.404 2.236 1.404 3.952V19h-1.97v-2.002c-.93 1.196-2.47 2.288-4.83 2.288zm.39-1.612c2.47 0 4.47-1.482 4.47-3.614v-1.248c-.987-.286-2.287-.572-3.925-.572-2.496 0-3.926 1.092-3.926 2.756 0 1.69 1.56 2.678 3.38 2.678zM160.732 19l4.108-5.2c-2-.468-3.587-1.872-3.587-4.056 0-2.47 1.872-4.186 5.07-4.186h6.318V19h-2v-4.888h-3.72c-1.24 1.638-2.47 3.276-3.71 4.888h-2.47zm5.746-6.578h4.16V7.326h-4.213c-2.002 0-3.172.962-3.172 2.496 0 1.638 1.352 2.6 3.224 2.6zm17.057 9.932v-5.122h1.456c1.1-2.002 1.8-4.81 1.8-9.334v-2.34h9.57v11.674h2.03l-.31 5.122h-1.66V19h-10.87l-.362 3.354h-1.64zm3.588-5.122h7.228V7.326h-5.64v1.872c0 3.328-.65 6.292-1.58 8.034zm20.45 2.08c-4.03 0-6.968-3.172-6.968-7.02 0-3.796 2.964-7.02 7.02-7.02 4.03 0 6.994 3.172 6.994 7.02 0 3.796-2.99 7.02-7.05 7.02zm.052-1.794c2.912 0 4.94-2.34 4.94-5.226s-2.158-5.252-4.992-5.252c-2.912 0-4.914 2.366-4.914 5.252 0 2.886 2.13 5.226 4.96 5.226zm16.966 1.794c2.53 0 4.14-1.092 5.49-2.6l-1.32-1.222c-1.06 1.144-2.34 2.028-4.05 2.028-2.81 0-4.94-2.314-4.94-5.226 0-2.938 2.08-5.252 4.81-5.252 1.82 0 3.068.858 4.134 1.976l1.275-1.352c-1.25-1.326-2.835-2.392-5.383-2.392-3.924 0-6.89 3.224-6.89 7.02 0 3.822 2.966 7.02 6.89 7.02zM236.93 19h2.03V7.326h4.81V5.558h-11.65v1.768h4.81V19zm13.535.286c-2.522 0-5.018-1.43-5.018-4.238 0-2.886 2.34-4.394 5.746-4.394 1.716 0 2.912.234 4.108.572v-.416c0-2.392-1.45-3.64-3.97-3.64-1.58 0-2.83.39-4.08.962l-.59-1.638c1.48-.676 2.91-1.144 4.888-1.144 1.9 0 3.38.52 4.344 1.482.936.936 1.404 2.236 1.404 3.952V19h-1.98v-2.002c-.933 1.196-2.47 2.288-4.833 2.288zm.39-1.612c2.47 0 4.472-1.482 4.472-3.614v-1.248c-.988-.286-2.288-.572-3.926-.572-2.49 0-3.92 1.092-3.92 2.756 0 1.69 1.56 2.678 3.38 2.678zM261.815 19V5.558h6.5c2.678 0 4.394 1.326 4.394 3.354 0 1.768-1.12 2.626-2.24 3.094 1.61.442 2.96 1.43 2.96 3.328 0 2.262-1.93 3.666-4.89 3.666h-6.74zm2.002-1.716h4.472c1.92 0 3.09-.858 3.09-2.262 0-1.3-1.17-2.08-3.36-2.08h-4.22v4.342zm0-5.954h4.134c1.62 0 2.73-.754 2.73-2.158 0-1.118-.93-1.898-2.67-1.898h-4.18v4.056zM277.35 19h2.003v-3.25l2.834-2.912L286.97 19h2.367l-5.772-7.618 5.616-5.824h-2.47l-7.35 7.748V5.558h-2V19zm18.527.286c-2.522 0-5.018-1.43-5.018-4.238 0-2.886 2.34-4.394 5.74-4.394 1.71 0 2.91.234 4.11.572v-.416c0-2.392-1.46-3.64-3.98-3.64-1.59 0-2.84.39-4.08.962l-.6-1.638c1.48-.676 2.91-1.144 4.89-1.144 1.9 0 3.38.52 4.34 1.482.93.936 1.4 2.236 1.4 3.952V19h-1.98v-2.002c-.936 1.196-2.47 2.288-4.836 2.288zm.39-1.612c2.47 0 4.472-1.482 4.472-3.614v-1.248c-.99-.286-2.29-.572-3.93-.572-2.5 0-3.93 1.092-3.93 2.756 0 1.69 1.56 2.678 3.38 2.678z"/>
      <circle cx="3" cy="10" r="3"/>
    </g>
  </g>
</svg>
