<svg width="240" height="18" viewBox="0 0 240 18" xmlns="http://www.w3.org/2000/svg">
  <title>
    btn_txt
  </title>
  <path d="M.3403.39h7.0865v.8424H6.124c-.4567 0-.7543.0805-.8928.2415-.1385.16-.2078.552-.2078 1.173v5.121h7.603V2.647c0-.644-.0654-1.0406-.1965-1.1904-.131-.1498-.44-.2247-.927-.2247H10.29V.39h7.053v.8424h-1.2915c-.322 0-.5485.0412-.6795.1236-.131.0823-.2376.2246-.32.4267-.045.1273-.0673.4605-.0673.9995v11.9492c0 .5765.0485.9247.146 1.0445.1945.254.55.381 1.0668.381h1.1455V17h-7.0527v-.8423h1.213c.479 0 .8048-.131.977-.393.0973-.1423.146-.5167.146-1.123V8.869h-7.603v5.8624c0 .584.045.936.1347 1.0557.1872.248.509.371.9658.371h1.3028V17H.3403v-.8423h1.359c.2395 0 .4304-.0486.5727-.146.1422-.0973.247-.2358.3144-.4155.0375-.1198.0562-.438.0562-.9546V2.6476c0-.6216-.0693-1.0128-.2078-1.1737-.1385-.161-.4398-.242-.904-.242H.3403V.39zm27.611-.348h.7523l5.9634 15.1948c.2396.614.73.921 1.4712.921h.5166V17h-6.626v-.8423h.5278c.6888 0 1.1755-.075 1.46-.2246.1947-.104.292-.265.292-.482 0-.127-.0262-.262-.0786-.404l-1.3814-3.527H24.29l-.775 2.022c-.202.539-.303.966-.303 1.281 0 .367.1702.682.511.944.3406.262.8366.393 1.488.393h.5615V17H19.753v-.8423c.6438 0 1.153-.1404 1.5273-.421.3743-.281.7187-.8143 1.0332-1.6005L27.9512.042zm-.3258 3.2007l-2.976 7.401h5.8734l-2.898-7.401zm22.355 4.6157V2.378c0-.4568-.075-.762-.2246-.9154-.15-.1534-.532-.2302-1.146-.2302h-1.056V.39h7.097v.8424h-.977c-.584 0-.951.073-1.101.219-.15.146-.225.4548-.225.9265v12.578c0 .501.078.827.236.977.157.149.471.224.943.224h1.123V17h-7.423v-.8423h1.538c.509 0 .838-.073.988-.219.149-.146.224-.4735.224-.9826V8.69c-1.4.9134-2.864 1.37-4.391 1.37-1.393 0-2.548-.365-3.465-1.095-.917-.73-1.376-1.8024-1.376-3.2174V2.378c0-.4568-.075-.762-.225-.9154-.1496-.1534-.5315-.2302-1.1454-.2302h-1.291V.39h7.424v.8424H44.43c-.584 0-.953.073-1.1063.219-.1536.146-.2303.4548-.2303.9265v3.537c0 .741.077 1.306.2305 1.695.153.389.466.732.938 1.027.471.295 1.044.443 1.718.443 1.437 0 2.77-.408 3.998-1.224zM65.2715.042h.7524l5.963 15.1948c.239.614.73.921 1.471.921h.516V17h-6.626v-.8423h.528c.688 0 1.175-.075 1.46-.2246.194-.104.292-.265.292-.482 0-.127-.027-.262-.079-.404l-1.381-3.526H61.61l-.775 2.022c-.202.539-.303.966-.303 1.281 0 .367.1704.6816.511.9436.3407.262.8367.393 1.488.393h.5616V17H57.073v-.8423c.644 0 1.153-.1404 1.5275-.421.3743-.281.7187-.8143 1.0332-1.6005L65.2715.042zm-.3257 3.2007l-2.976 7.401h5.8735l-2.8975-7.401zM76.3623.39H89.839l.3256 6.278h-.775c-.509-3.691-1.8417-5.5367-3.998-5.5367-.4342 0-.7318.075-.8928.2247-.161.1497-.2415.3968-.2415.7412v13.2744c0 .2695.0786.468.236.5952.157.1273.4154.191.7748.191h1.674V17h-7.716v-.8423h1.91c.255 0 .449-.0636.584-.191.135-.1272.202-.2956.202-.5053V1.996c0-.2844-.086-.4997-.258-.6457-.172-.146-.449-.219-.831-.219-1.085 0-1.991.513-2.717 1.5386-.599.846-1.029 2.178-1.291 3.998h-.82L76.363.39zM93.2705 17v-.8423h.9097c.4866 0 .816-.0505.9883-.1516.1722-.101.2826-.222.3313-.365.0486-.142.073-.441.073-.898V2.311c0-.4267-.0618-.713-.1853-.859-.1236-.146-.38-.219-.7693-.219h-1.3477V.39h7.648v.8424h-1.898c-.4342 0-.7206.0974-.859.292-.1386.1947-.208.513-.208.9546v5.1548h3.3693c1.8717 0 3.3335.41 4.3855 1.2297 1.052.82 1.5778 1.986 1.5778 3.4983 0 1.3627-.479 2.4763-1.437 3.341-.958.8648-2.385 1.2972-4.279 1.2972h-8.299zm4.683-8.524v6.435c0 .4494.0825.7694.2472.9603.1647.191.494.2864.9883.2864h1.415c1.7145 0 2.8282-.322 3.341-.9658.513-.644.7694-1.591.7694-2.842 0-1.348-.32-2.331-.9603-2.948-.64-.618-1.671-.927-3.093-.927h-2.707zM118.3048 17v-.8423h1.1006c.5016 0 .8273-.0767.977-.2302.1498-.1535.2246-.4923.2246-1.0164V2.345c0-.4642-.073-.773-.219-.9265-.146-.1535-.526-.2302-1.14-.2302h-.9433v-.843h6.9853v.8423h-.977c-.584 0-.951.073-1.1006.219-.1497.146-.2246.4586-.2246.9377v13.6h5.6826v-13.6c0-.4642-.073-.773-.219-.9265-.146-.1535-.526-.2302-1.14-.2302h-.741V.3452h6.581v.8423h-.7862c-.5765 0-.9396.073-1.0893.219-.15.146-.225.4586-.225.9377v13.6h5.682v-13.6c0-.4866-.077-.801-.231-.9433-.154-.143-.519-.214-1.095-.214h-.989V.345h6.996v.8423h-.9437c-.614 0-.996.0805-1.1457.2415-.1495.161-.2244.466-.2244.915v12.567c0 .5316.0784.8723.236 1.022.157.1497.483.2246.977.2246h1.1003V17h-23.112zM152.665.042c1.4 0 2.7122.3687 3.9363 1.1062 1.224.7375 2.1825 1.767 2.875 3.0884.6926 1.3214 1.0388 2.8095 1.0388 4.464 0 1.6547-.348 3.1484-1.044 4.481-.696 1.3327-1.652 2.3715-2.869 3.1165-1.216.745-2.506 1.118-3.869 1.118-1.332 0-2.583-.365-3.751-1.095-1.168-.73-2.105-1.774-2.813-3.133s-1.061-2.865-1.061-4.52c0-1.632.343-3.105 1.028-4.419s1.623-2.343 2.814-3.088c1.19-.745 2.429-1.118 3.717-1.118zm.1797.8647c-1.46 0-2.643.6065-3.5488 1.8194-.906 1.213-1.359 3.19-1.359 5.93 0 2.973.464 5.028 1.392 6.166.928 1.138 2.077 1.707 3.447 1.707.958 0 1.8-.258 2.527-.775.726-.516 1.304-1.336 1.735-2.459.43-1.123.646-2.598.646-4.425 0-1.991-.202-3.546-.607-4.666-.405-1.119-.981-1.948-1.73-2.487-.749-.539-1.584-.808-2.505-.808zM164.3287.39h17.0028v.8424h-1.2353c-.4193 0-.702.086-.848.2583-.146.1722-.219.6027-.219 1.2915v11.9492c0 .4942.0244.8086.073.9434.0488.1348.176.249.382.3425.2058.0936.4548.1404.7468.1404h1.1005V17h-7.019v-.8423h1.213c.479 0 .786-.101.9208-.3032.1348-.2022.202-.6065.202-1.213V1.3335h-7.6366v13.398c0 .5166.0206.829.0618.9378.0412.1086.148.217.32.3257.1723.1084.4118.1627.7188.1627h1.3027V17h-7.0864v-.8423h1.359c.292 0 .496-.058.612-.174.116-.116.2002-.2228.2526-.32.0525-.0975.0787-.438.0787-1.022V2.6474c0-.599-.062-.9846-.186-1.1568-.124-.1722-.433-.2583-.927-.2583h-1.191V.39zm25.3422 12.511l7.895-10.321v-.2807c0-.4492-.072-.7393-.214-.8703-.142-.131-.442-.1966-.899-.1966h-1.213V.39h6.996v.8424H201c-.337 0-.599.0655-.786.1966-.1873.131-.281.582-.281 1.3532v11.9492c0 .4792.0245.788.073.9266.049.1385.1742.2564.3764.3537.202.0973.457.146.764.146h1.0894V17h-6.996v-.8423h1.213c.479 0 .7843-.101.9153-.3032.131-.2022.197-.6065.197-1.213V4.1188l-7.895 10.4106c0 .4567.0078.7768.0228.9602s.118.3407.309.4717.448.1965.77.1965h1.303V17h-7.0864v-.8423h1.359c.3667 0 .6157-.101.7467-.3032.131-.2022.1963-.6065.1963-1.213V2.6475c0-.599-.064-.9845-.191-1.1567-.128-.1722-.434-.2583-.921-.2583h-1.191V.39h7.0863v.8424h-1.303c-.464 0-.7633.0824-.898.247-.135.1648-.202.554-.202 1.168V12.901zM205.894.39h7.0865v.8424h-1.3028c-.4567 0-.7543.0805-.8928.2415-.139.16-.208.552-.208 1.173v5.121h7.603V2.647c0-.644-.066-1.0406-.197-1.1904-.131-.1498-.44-.2247-.927-.2247h-1.213V.39h7.053v.8424h-1.292c-.322 0-.549.0412-.68.1236-.131.0823-.238.2246-.32.4267-.045.1273-.068.4605-.068.9995v11.9492c0 .5765.049.9247.146 1.0445.195.254.55.381 1.067.381h1.145V17h-7.053v-.8423h1.213c.479 0 .805-.131.977-.393.0973-.1423.146-.5167.146-1.123V8.869h-7.603v5.8624c0 .584.045.936.135 1.0557.187.248.509.371.9654.371h1.3027V17h-7.0867v-.8423h1.359c.239 0 .43-.0486.5723-.146.142-.0973.247-.2358.3143-.4155.038-.1198.0567-.438.0567-.9546V2.6476c0-.6216-.069-1.0128-.208-1.1737-.138-.161-.4393-.242-.904-.242h-1.19V.39zm20.6592 0h12.8364l.2247 5.7164h-.7862c-.351-2.1263-.902-3.4702-1.65-4.0317-.748-.5615-1.695-.8423-2.841-.8423h-2.358c-.494 0-.741.247-.741.7412v13.162c0 .397.094.6665.281.8087.188.1423.494.2134.921.2134h1.73V17h-7.614v-.8423h1.348c.637 0 .955-.2957.955-.8872V2.0635c0-.554-.3404-.831-1.022-.831h-1.28V.39z" fill-rule="evenodd"/>
</svg>
